<svg xmlns="http://www.w3.org/2000/svg" width="341" height="309" viewBox="0 0 341 309" fill="none">
<circle cx="165" cy="155" r="144" fill="#28FBA5" stroke="#182025" stroke-width="12"/>
<path d="M63 51C63 47.6863 65.6863 45 69 45H103C106.314 45 109 47.6863 109 51C109 54.3137 106.314 57 103 57H69C65.6863 57 63 54.3137 63 51Z" fill="#182025"/>
<path d="M38 81C38 77.6863 40.6863 75 44 75H72C75.3137 75 78 77.6863 78 81C78 84.3137 75.3137 87 72 87H44C40.6863 87 38 84.3137 38 81Z" fill="#182025"/>
<path d="M185 141C185 137.686 187.686 135 191 135H247C250.314 135 253 137.686 253 141C253 144.314 250.314 147 247 147H191C187.686 147 185 144.314 185 141Z" fill="#373187"/>
<path d="M228 111C228 107.686 230.686 105 234 105H297C300.314 105 303 107.686 303 111C303 114.314 300.314 117 297 117H234C230.686 117 228 114.314 228 111Z" fill="#182025"/>
<path d="M47 141C47 137.686 49.6863 135 53 135H120C123.314 135 126 137.686 126 141C126 144.314 123.314 147 120 147H53C49.6863 147 47 144.314 47 141Z" fill="#9E1111"/>
<path d="M92 34C92 28.4771 96.4772 24 102 24H156C159.314 24 162 26.6863 162 30C162 33.3137 159.314 36 156 36H92V34Z" fill="#182025"/>
<path d="M197 30C197 26.6863 199.686 24 203 24H236C239.314 24 242 26.6863 242 30C242 33.3137 239.314 36 236 36H203C199.686 36 197 33.3137 197 30Z" fill="#182025"/>
<path d="M24 111C24 107.686 26.6863 105 30 105H116C119.314 105 122 107.686 122 111C122 114.314 119.314 117 116 117H30C26.6863 117 24 114.314 24 111Z" fill="#182025"/>
<path d="M126 111C126 107.686 128.686 105 132 105H196C199.314 105 202 107.686 202 111C202 114.314 199.314 117 196 117H132C128.686 117 126 114.314 126 111Z" fill="#373187"/>
<path d="M116 51C116 47.6863 118.686 45 122 45H131C134.314 45 137 47.6863 137 51C137 54.3137 134.314 57 131 57H122C118.686 57 116 54.3137 116 51Z" fill="#373187"/>
<path d="M169 30C169 26.6863 171.686 24 175 24H184C187.314 24 190 26.6863 190 30C190 33.3137 187.314 36 184 36H175C171.686 36 169 33.3137 169 30Z" fill="#FBD039"/>
<path d="M205 111C205 107.686 207.686 105 211 105H220C223.314 105 226 107.686 226 111C226 114.314 223.314 117 220 117H211C207.686 117 205 114.314 205 111Z" fill="#0A6930"/>
<path d="M149 167C149 163.686 151.686 161 155 161H164C167.314 161 170 163.686 170 167C170 170.314 167.314 173 164 173H155C151.686 173 149 170.314 149 167Z" fill="#FBD039"/>
<path d="M98 197C98 193.686 100.686 191 104 191H113C116.314 191 119 193.686 119 197C119 200.314 116.314 203 113 203H104C100.686 203 98 200.314 98 197Z" fill="#9E1111"/>
<path d="M171 262C171 258.686 173.686 256 177 256H186C189.314 256 192 258.686 192 262C192 265.314 189.314 268 186 268H177C173.686 268 171 265.314 171 262Z" fill="#373187"/>
<path d="M259 141C259 137.686 261.686 135 265 135H303C306.314 135 309 137.686 309 141C309 144.314 306.314 147 303 147H265C261.686 147 259 144.314 259 141Z" fill="#182025"/>
<path d="M16 167C16 163.686 18.6863 161 22 161H60C63.3137 161 66 163.686 66 167C66 170.314 63.3137 173 60 173H22C18.6863 173 16 170.314 16 167Z" fill="#182025"/>
<path d="M24 197C24 193.686 26.6863 191 30 191H86C89.3137 191 92 193.686 92 197C92 200.314 89.3137 203 86 203H30C26.6863 203 24 200.314 24 197Z" fill="#182025"/>
<path d="M73 167C73 163.686 75.6863 161 79 161H135C138.314 161 141 163.686 141 167C141 170.314 138.314 173 135 173H79C75.6863 173 73 170.314 73 167Z" fill="#373187"/>
<path d="M177 167C177 163.686 179.686 161 183 161H239C242.314 161 245 163.686 245 167C245 170.314 242.314 173 239 173H183C179.686 173 177 170.314 177 167Z" fill="#9E1111"/>
<path d="M126 197C126 193.686 128.686 191 132 191H188C191.314 191 194 193.686 194 197C194 200.314 191.314 203 188 203H132C128.686 203 126 200.314 126 197Z" fill="#373187"/>
<path d="M199 197C199 193.686 201.686 191 205 191H279C282.314 191 285 193.686 285 197C285 200.314 282.314 203 279 203H205C201.686 203 199 200.314 199 197Z" fill="#FBD039"/>
<path d="M41 232C41 228.686 43.6863 226 47 226H135C138.314 226 141 228.686 141 232C141 235.314 138.314 238 135 238H47C43.6863 238 41 235.314 41 232Z" fill="#182025"/>
<path d="M250 81C250 77.6863 252.686 75 256 75H283C286.314 75 289 77.6863 289 81C289 84.3137 286.314 87 283 87H256C252.686 87 250 84.3137 250 81Z" fill="#182025"/>
<path d="M131 141C131 137.686 133.686 135 137 135H173C176.314 135 179 137.686 179 141C179 144.314 176.314 147 173 147H137C133.686 147 131 144.314 131 141Z" fill="#0A6930"/>
<path d="M251 167C251 163.686 253.686 161 257 161H293C296.314 161 299 163.686 299 167C299 170.314 296.314 173 293 173H257C253.686 173 251 170.314 251 167Z" fill="#0A6930"/>
<path d="M149 232C149 228.686 151.686 226 155 226H209C212.314 226 215 228.686 215 232C215 235.314 212.314 238 209 238H155C151.686 238 149 235.314 149 232Z" fill="#0A6930"/>
<path d="M98 262C98 258.686 100.686 256 104 256H158C161.314 256 164 258.686 164 262C164 265.314 161.314 268 158 268H104C100.686 268 98 265.314 98 262Z" fill="#0A6930"/>
<path d="M198 262C198 258.686 200.686 256 204 256H258C261.314 256 264 258.686 264 262C264 265.314 261.314 268 258 268H204C200.686 268 198 265.314 198 262Z" fill="#182025"/>
<path d="M222 232C222 228.686 224.686 226 228 226H264C267.314 226 270 228.686 270 232C270 235.314 267.314 238 264 238H228C224.686 238 222 235.314 222 232Z" fill="#9E1111"/>
<path d="M141 51C141 47.6863 143.686 45 147 45H191C194.314 45 197 47.6863 197 51C197 54.3137 194.314 57 191 57H147C143.686 57 141 54.3137 141 51Z" fill="#9E1111"/>
<path d="M202 51C202 47.6863 204.686 45 208 45H258C261.314 45 264 47.6863 264 51C264 54.3137 261.314 57 258 57H208C204.686 57 202 54.3137 202 51Z" fill="#182025"/>
<path d="M166 81C166 77.6863 168.686 75 172 75H240C243.314 75 246 77.6863 246 81C246 84.3137 243.314 87 240 87H172C168.686 87 166 84.3137 166 81Z" fill="#373187"/>
<path d="M84 81C84 77.6863 86.6863 75 90 75H156C159.314 75 162 77.6863 162 81C162 84.3137 159.314 87 156 87H90C86.6863 87 84 84.3137 84 81Z" fill="#9E1111"/>
<circle cx="245" cy="30" r="28" fill="#93ECFF" fill-opacity="0.82" stroke="black" stroke-width="4"/>
<circle cx="24" cy="197" r="22" fill="#93ECFF" fill-opacity="0.82" stroke="black" stroke-width="4"/>
<circle cx="285" cy="232" r="22" fill="#93ECFF" fill-opacity="0.82" stroke="black" stroke-width="4"/>
<path d="M78.1036 3.07322C78.3781 2.13206 79.7023 2.10693 80.0123 3.03699L82.8289 11.4868C82.9357 11.807 83.1967 12.0518 83.5231 12.1377L89.4299 13.6921C90.3756 13.9409 90.4387 15.2594 89.5211 15.5975L83.4355 17.8396C83.1593 17.9413 82.942 18.1596 82.8414 18.4362L80.0029 26.242C79.6768 27.1388 78.3995 27.1128 78.1102 26.2035L75.6483 18.4661C75.5547 18.172 75.3306 17.9376 75.0411 17.8309L68.9789 15.5975C68.0613 15.2594 68.1244 13.9409 69.0701 13.6921L74.9529 12.144C75.2923 12.0546 75.5601 11.7939 75.6584 11.4569L78.1036 3.07322Z" fill="yellow"/>
<path d="M17.3813 57.2445C17.9798 55.4709 20.4689 55.4178 21.1424 57.1643L24.3524 65.4885C24.5921 66.11 25.1254 66.5714 25.7749 66.7191L30.8419 67.8717C32.8285 68.3236 32.9464 71.1094 31.0052 71.7276L25.6148 73.4442C25.057 73.6218 24.6051 74.0349 24.3782 74.5744L21.1185 82.3228C20.4146 83.9961 18.0252 83.9417 17.3981 82.2382L14.6021 74.6421C14.3888 74.0629 13.9202 73.6146 13.3321 73.4273L7.99484 71.7276C6.05356 71.1094 6.17152 68.3236 8.15812 67.8717L13.1711 66.7314C13.8501 66.5769 14.3999 66.0804 14.6225 65.4206L17.3813 57.2445Z" fill="yellow"/>
<g>
<path d="M192.233 296.605C181.549 295.67 175.633 287.364 174.485 271.688C173.533 259.007 174.469 236.526 177.293 204.247L168.202 209.98L126.603 206.341C120.201 219.295 113.01 230.806 105.028 240.873C97.2739 250.96 89.3036 258.28 81.1174 262.832L81.0578 263.514C83.8936 265.137 86.6754 266.067 89.4032 266.306C92.8129 266.604 96.0451 266.314 99.0997 265.436C102.382 264.578 104.363 264.179 105.045 264.239C106.637 264.378 107.383 265.016 107.283 266.152C107.144 267.743 105.314 270.332 101.793 273.918C97.8382 277.237 93.7252 279.74 89.4545 281.428C85.2037 282.889 81.2597 283.46 77.6227 283.142C74.6675 282.883 70.5417 281.606 65.2452 279.31C59.9487 277.014 55.9365 275.747 53.2087 275.508C49.7989 275.21 46.3096 275.821 42.7408 277.341C38.9446 278.842 36.4782 279.542 35.3416 279.443C34.205 279.343 33.6864 278.725 33.7859 277.589C33.9848 275.315 35.1227 272.781 37.1998 269.985C39.2968 266.961 41.6452 264.991 44.2452 264.073C45.6687 263.51 47.0724 263.175 48.4562 263.067C49.6127 262.939 51.13 262.614 53.0082 262.091C62.1719 259.457 70.4377 253.995 77.8055 245.707C85.4205 237.211 92.1021 227.602 97.8503 216.881C103.618 205.933 110.337 191.976 118.006 175.009C126.783 155.849 134.209 140.35 140.284 128.513C146.606 116.468 153.748 105.525 161.709 95.685C169.691 85.6176 178.487 78.0265 188.096 72.9118L188.126 72.5708C184.984 71.8378 182.637 71.1743 181.085 70.5804C180.196 70.2736 177.394 69.5703 172.68 68.4708C168.193 67.3911 162.313 66.533 155.039 65.8966C142.764 64.8227 132.222 66.1909 123.413 70.0014C114.832 73.8318 106.457 80.5435 98.2879 90.1363C95.6965 93.5746 93.7189 95.234 92.355 95.1147C90.9911 94.9953 90.3887 94.0264 90.5478 92.2079L91.1871 88.8279C95.81 75.2599 104.513 64.7975 117.297 57.4408C130.308 50.104 144.883 47.1416 161.023 48.5536C167.615 49.1304 177.404 51.1321 190.389 54.5587C202.466 57.9059 211.118 59.8081 216.346 60.2655C222.256 60.7826 228.607 60.1929 235.398 58.4965L235.368 58.8375C228.336 68.5298 222.16 84.138 216.841 105.662C211.542 126.959 207.49 153.633 204.686 185.685C201.803 218.646 200.535 240.983 200.885 252.695C200.763 259.327 201.235 264.408 202.3 267.937C203.613 271.259 206.088 273.079 209.725 273.397C211.998 273.596 214.208 273.216 216.353 272.259C218.725 271.321 221.83 269.875 225.666 267.92C230.243 265.342 233.1 264.104 234.237 264.203C235.601 264.322 236.243 264.837 236.163 265.746C236.004 267.564 235.133 269.664 233.551 272.045C228.556 279.396 222.069 285.472 214.09 290.271C206.338 295.09 199.053 297.201 192.233 296.605ZM178.857 190.297C181.142 169.424 184.429 148.867 188.719 128.627C193.03 108.16 197.684 91.6171 202.682 78.998L202.341 78.9682C193.117 82.2843 183.614 91.4169 173.831 106.366C164.276 121.335 152.764 144.264 139.295 175.154L134.53 186.419L178.857 190.297Z" fill="#4644B1"/>
<path d="M174.485 271.688L178.293 271.409L178.292 271.402L174.485 271.688ZM177.293 204.247L181.097 204.58L181.767 196.913L175.257 201.018L177.293 204.247ZM168.202 209.98L167.869 213.783L169.151 213.895L170.238 213.209L168.202 209.98ZM126.603 206.341L126.936 202.537L124.336 202.31L123.18 204.649L126.603 206.341ZM105.028 240.873L102.036 238.501L102.019 238.524L102.001 238.546L105.028 240.873ZM81.1174 262.832L79.262 259.496L77.4908 260.481L77.3142 262.5L81.1174 262.832ZM81.0578 263.514L77.2545 263.182L77.0416 265.615L79.1619 266.828L81.0578 263.514ZM99.0997 265.436L98.1339 261.743L98.0893 261.754L98.045 261.767L99.0997 265.436ZM101.793 273.918L104.248 276.843L104.389 276.724L104.518 276.593L101.793 273.918ZM89.4545 281.428L90.6951 285.039L90.7771 285.011L90.8578 284.979L89.4545 281.428ZM42.7408 277.341L44.144 280.892L44.1907 280.873L44.2369 280.854L42.7408 277.341ZM37.1998 269.985L40.2645 272.261L40.3015 272.212L40.3369 272.161L37.1998 269.985ZM44.2452 264.073L45.5161 267.673L45.5827 267.65L45.6484 267.624L44.2452 264.073ZM48.4562 263.067L48.7532 266.873L48.8146 266.869L48.8758 266.862L48.4562 263.067ZM53.0082 262.091L54.0321 265.769L54.0475 265.765L54.063 265.76L53.0082 262.091ZM77.8055 245.707L74.9625 243.159L74.9573 243.165L74.9521 243.17L77.8055 245.707ZM97.8503 216.881L101.215 218.685L101.222 218.673L101.228 218.661L97.8503 216.881ZM118.006 175.009L114.535 173.419L114.531 173.428L114.527 173.437L118.006 175.009ZM140.284 128.513L136.903 126.738L136.895 126.754L136.887 126.77L140.284 128.513ZM161.709 95.685L164.677 98.0864L164.689 98.0717L164.701 98.0568L161.709 95.685ZM188.096 72.9118L189.89 76.282L191.719 75.3085L191.9 73.2445L188.096 72.9118ZM188.126 72.5708L191.93 72.9036L192.218 69.605L188.994 68.8528L188.126 72.5708ZM181.085 70.5804L182.45 67.0149L182.391 66.9922L182.33 66.9714L181.085 70.5804ZM172.68 68.4708L171.787 72.1826L171.8 72.1857L171.813 72.1887L172.68 68.4708ZM123.413 70.0014L121.898 66.4975L121.877 66.5062L121.857 66.5152L123.413 70.0014ZM98.2879 90.1363L95.3812 87.6611L95.3075 87.7477L95.2391 87.8385L98.2879 90.1363ZM90.5478 92.2079L86.7965 91.4983L86.7611 91.6854L86.7445 91.8751L90.5478 92.2079ZM91.1871 88.8279L87.5733 87.5967L87.486 87.8527L87.4358 88.1184L91.1871 88.8279ZM117.297 57.4408L115.422 54.1153L115.407 54.1235L115.393 54.1318L117.297 57.4408ZM190.389 54.5587L191.409 50.8797L191.386 50.8733L191.363 50.8673L190.389 54.5587ZM235.398 58.4965L239.201 58.8293L239.668 53.4948L234.473 54.7925L235.398 58.4965ZM235.368 58.8375L238.458 61.0796L239.079 60.2237L239.172 59.1702L235.368 58.8375ZM216.841 105.662L220.546 106.584L220.547 106.578L216.841 105.662ZM200.885 252.695L204.702 252.766L204.704 252.674L204.701 252.582L200.885 252.695ZM202.3 267.937L198.646 269.041L198.691 269.193L198.75 269.34L202.3 267.937ZM216.353 272.259L214.95 268.708L214.872 268.739L214.797 268.773L216.353 272.259ZM225.666 267.92L227.399 271.321L227.47 271.285L227.539 271.247L225.666 267.92ZM233.551 272.045L236.709 274.191L236.72 274.175L236.73 274.159L233.551 272.045ZM214.09 290.271L212.122 286.999L212.098 287.014L212.074 287.029L214.09 290.271ZM178.857 190.297L178.525 194.1L182.246 194.426L182.652 190.712L178.857 190.297ZM188.719 128.627L192.454 129.419L192.455 129.414L188.719 128.627ZM202.682 78.998L206.231 80.4039L208.118 75.6412L203.015 75.1948L202.682 78.998ZM202.341 78.9682L202.674 75.1649L201.838 75.0919L201.049 75.3756L202.341 78.9682ZM173.831 106.366L170.637 104.275L170.625 104.293L170.613 104.312L173.831 106.366ZM139.295 175.154L135.796 173.628L135.787 173.647L135.779 173.667L139.295 175.154ZM134.53 186.419L131.014 184.932L128.97 189.765L134.198 190.222L134.53 186.419ZM192.566 292.801C188.272 292.426 185.165 290.649 182.893 287.46C180.504 284.105 178.841 278.898 178.293 271.409L170.678 271.967C171.277 280.155 173.147 286.938 176.674 291.889C180.318 297.005 185.511 299.849 191.901 300.408L192.566 292.801ZM178.292 271.402C177.366 259.068 178.271 236.873 181.097 204.58L173.49 203.915C170.667 236.18 169.7 258.945 170.678 271.974L178.292 271.402ZM175.257 201.018L166.166 206.751L170.238 213.209L179.33 207.477L175.257 201.018ZM168.535 206.177L126.936 202.537L126.27 210.144L167.869 213.783L168.535 206.177ZM123.18 204.649C116.883 217.392 109.832 228.669 102.036 238.501L108.02 243.245C116.188 232.942 123.519 221.198 130.026 208.032L123.18 204.649ZM102.001 238.546C94.4575 248.36 86.8611 255.27 79.262 259.496L82.9728 266.169C91.7462 261.29 100.09 253.561 108.055 243.2L102.001 238.546ZM77.3142 262.5L77.2545 263.182L84.861 263.847L84.9207 263.165L77.3142 262.5ZM79.1619 266.828C82.3858 268.673 85.6963 269.814 89.0704 270.109L89.7359 262.503C87.6544 262.321 85.4013 261.601 82.9537 260.2L79.1619 266.828ZM89.0704 270.109C92.9109 270.445 96.6159 270.123 100.154 269.106L98.045 261.767C95.4743 262.506 92.715 262.763 89.7359 262.503L89.0704 270.109ZM100.065 269.13C101.676 268.709 102.913 268.415 103.801 268.236C104.247 268.146 104.564 268.094 104.773 268.067C105.041 268.033 104.963 268.064 104.713 268.042L105.378 260.435C104.4 260.35 103.196 260.569 102.294 260.751C101.2 260.971 99.8049 261.306 98.1339 261.743L100.065 269.13ZM104.713 268.042C105.17 268.082 104.822 268.155 104.317 267.723C104.024 267.472 103.765 267.121 103.612 266.7C103.466 266.3 103.466 265.977 103.48 265.82L111.086 266.485C111.224 264.917 110.751 263.179 109.28 261.92C108.029 260.85 106.512 260.534 105.378 260.435L104.713 268.042ZM103.48 265.82C103.503 265.552 103.528 265.896 102.689 267.083C101.94 268.143 100.759 269.523 99.0692 271.243L104.518 276.593C106.349 274.728 107.843 273.02 108.924 271.491C109.914 270.09 110.924 268.344 111.086 266.485L103.48 265.82ZM99.3395 270.993C95.6599 274.081 91.8961 276.358 88.0512 277.878L90.8578 284.979C95.5543 283.123 100.017 280.393 104.248 276.843L99.3395 270.993ZM88.2139 277.818C84.3545 279.144 80.9523 279.601 77.9554 279.338L77.2899 286.945C81.5672 287.319 86.0528 286.634 90.6951 285.039L88.2139 277.818ZM77.9554 279.338C75.6335 279.135 71.9693 278.064 66.7636 275.807L63.7268 282.813C69.1141 285.148 73.7016 286.631 77.2899 286.945L77.9554 279.338ZM66.7636 275.807C61.4125 273.488 56.9219 272.001 53.5414 271.705L52.876 279.312C54.9511 279.493 58.4848 280.541 63.7268 282.813L66.7636 275.807ZM53.5414 271.705C49.4283 271.345 45.3122 272.096 41.2446 273.829L44.2369 280.854C47.307 279.546 50.1696 279.075 52.876 279.312L53.5414 271.705ZM41.3375 273.791C39.4972 274.518 38.0625 275.018 37.0008 275.319C35.7961 275.661 35.4861 275.623 35.6743 275.639L35.0089 283.246C36.3337 283.362 37.8252 283.023 39.0868 282.664C40.4915 282.265 42.1881 281.665 44.144 280.892L41.3375 273.791ZM35.6743 275.639C35.6923 275.641 36.4037 275.71 37.0248 276.45C37.6459 277.191 37.5907 277.903 37.5891 277.921L29.9826 277.256C29.8816 278.41 30.0359 280 31.1756 281.359C32.3153 282.717 33.8543 283.145 35.0089 283.246L35.6743 275.639ZM37.5891 277.921C37.7021 276.63 38.4037 274.766 40.2645 272.261L34.1351 267.708C31.8418 270.795 30.2674 274.001 29.9826 277.256L37.5891 277.921ZM40.3369 272.161C42.1279 269.578 43.8889 268.247 45.5161 267.673L42.9743 260.473C39.4016 261.734 36.4657 264.344 34.0627 267.809L40.3369 272.161ZM45.6484 267.624C46.7541 267.187 47.7857 266.949 48.7532 266.873L48.1592 259.261C46.3591 259.401 44.5834 259.834 42.8419 260.522L45.6484 267.624ZM48.8758 266.862C50.3271 266.701 52.069 266.315 54.0321 265.769L51.9844 258.413C50.191 258.912 48.8983 259.177 48.0366 259.272L48.8758 266.862ZM54.063 265.76C64.0285 262.896 72.8907 256.982 80.6589 248.243L74.9521 243.17C67.9847 251.009 60.3154 256.018 51.9535 258.422L54.063 265.76ZM80.6485 248.255C88.4794 239.518 95.3326 229.657 101.215 218.685L94.4856 215.077C88.8717 225.548 82.3617 234.903 74.9625 243.159L80.6485 248.255ZM101.228 218.661C107.045 207.62 113.798 193.587 121.485 176.582L114.527 173.437C106.876 190.364 100.192 204.246 94.4726 215.102L101.228 218.661ZM121.477 176.599C130.242 157.465 137.642 142.023 143.68 130.256L136.887 126.77C130.776 138.678 123.324 154.234 114.535 173.419L121.477 176.599ZM143.664 130.287C149.878 118.448 156.885 107.718 164.677 98.0864L158.742 93.2836C150.611 103.333 143.333 114.488 136.903 126.738L143.664 130.287ZM164.701 98.0568C172.414 88.3279 180.82 81.1095 189.89 76.282L186.303 69.5416C176.153 74.9436 166.968 82.9073 158.718 93.3132L164.701 98.0568ZM191.9 73.2445L191.93 72.9036L184.323 72.2381L184.293 72.579L191.9 73.2445ZM188.994 68.8528C185.894 68.1298 183.752 67.5132 182.45 67.0149L179.72 74.146C181.522 74.8354 184.073 75.5457 187.259 76.2888L188.994 68.8528ZM182.33 66.9714C181.206 66.5835 178.158 65.8283 173.547 64.7528L171.813 72.1887C176.63 73.3124 179.186 73.9637 179.84 74.1895L182.33 66.9714ZM173.573 64.7589C168.828 63.6171 162.739 62.7379 155.372 62.0933L154.706 69.6999C161.887 70.3281 167.558 71.1651 171.787 72.1826L173.573 64.7589ZM155.372 62.0933C142.64 60.9794 131.43 62.3738 121.898 66.4975L124.929 73.5054C133.014 70.008 142.888 68.6659 154.706 69.6999L155.372 62.0933ZM121.857 66.5152C112.61 70.6427 103.8 77.7753 95.3812 87.6611L101.195 92.6116C109.114 83.3117 117.054 77.021 124.969 73.4877L121.857 66.5152ZM95.2391 87.8385C94.0184 89.458 93.0767 90.4731 92.4071 91.035C92.2494 91.1673 92.1246 91.2593 92.0322 91.3208C91.9389 91.3829 91.8937 91.404 91.8949 91.4034C91.8958 91.403 91.9645 91.371 92.0947 91.3431C92.2284 91.3145 92.4323 91.2891 92.6877 91.3114L92.0222 98.9179C94.2993 99.1172 96.1643 97.8499 97.3152 96.8842C98.6232 95.7866 99.966 94.2529 101.337 92.4342L95.2391 87.8385ZM92.6877 91.3114C92.7653 91.3182 93.0115 91.3529 93.3235 91.5256C93.6567 91.71 93.9347 91.9807 94.1225 92.2827C94.2961 92.5619 94.3355 92.7742 94.3416 92.8129C94.3471 92.8474 94.331 92.7699 94.351 92.5406L86.7445 91.8751C86.6329 93.1501 86.7084 94.819 87.638 96.3142C88.7039 98.0287 90.4123 98.7771 92.0222 98.9179L92.6877 91.3114ZM94.299 92.9174L94.9383 89.5375L87.4358 88.1184L86.7965 91.4983L94.299 92.9174ZM94.8008 90.0592C99.1156 77.3957 107.195 67.659 119.201 60.7498L115.393 54.1318C101.831 61.936 92.5044 73.124 87.5733 87.5967L94.8008 90.0592ZM119.172 60.7663C131.455 53.8401 145.25 51.006 160.69 52.3569L161.355 44.7504C144.517 43.2772 129.161 46.3679 115.422 54.1153L119.172 60.7663ZM160.69 52.3569C166.943 52.9039 176.472 54.8346 189.415 58.2502L191.363 50.8673C178.336 47.4295 168.287 45.3568 161.355 44.7504L160.69 52.3569ZM189.37 58.2378C201.448 61.5854 210.401 63.5777 216.013 64.0688L216.679 56.4623C211.835 56.0385 203.484 54.2263 191.409 50.8797L189.37 58.2378ZM216.013 64.0688C222.414 64.6288 229.194 63.9816 236.323 62.2005L234.473 54.7925C228.021 56.4043 222.099 56.9365 216.679 56.4623L216.013 64.0688ZM231.595 58.1638L231.565 58.5047L239.172 59.1702L239.201 58.8293L231.595 58.1638ZM232.278 56.5954C224.806 66.8937 218.489 83.0811 213.135 104.746L220.547 106.578C225.832 85.195 231.866 70.1659 238.458 61.0796L232.278 56.5954ZM213.136 104.74C207.773 126.297 203.697 153.185 200.883 185.352L208.489 186.018C211.284 154.082 215.312 127.621 220.546 106.584L213.136 104.74ZM200.883 185.352C198.002 218.286 196.712 240.839 197.069 252.809L204.701 252.582C204.359 241.127 205.603 219.006 208.489 186.018L200.883 185.352ZM197.068 252.625C196.943 259.391 197.408 264.942 198.646 269.041L205.955 266.834C205.062 263.874 204.583 259.264 204.702 252.766L197.068 252.625ZM198.75 269.34C199.626 271.558 200.975 273.468 202.879 274.869C204.779 276.266 207.009 276.992 209.392 277.2L210.058 269.594C208.804 269.484 207.978 269.14 207.403 268.718C206.833 268.298 206.287 267.638 205.851 266.534L198.75 269.34ZM209.392 277.2C212.332 277.457 215.189 276.959 217.909 275.745L214.797 268.773C213.226 269.474 211.665 269.734 210.058 269.594L209.392 277.2ZM217.756 275.809C220.291 274.807 223.518 273.299 227.399 271.321L223.932 264.518C220.142 266.45 217.16 267.835 214.95 268.708L217.756 275.809ZM227.539 271.247C229.779 269.985 231.507 269.104 232.761 268.56C233.389 268.288 233.829 268.131 234.109 268.051C234.466 267.949 234.321 268.043 233.904 268.006L234.57 260.4C233.585 260.314 232.656 260.525 232.014 260.708C231.297 260.913 230.523 261.208 229.723 261.555C228.119 262.25 226.13 263.277 223.793 264.593L227.539 271.247ZM233.904 268.006C234.284 268.039 233.896 268.091 233.355 267.658C233.037 267.404 232.729 267.027 232.537 266.541C232.352 266.072 232.338 265.664 232.36 265.413L239.967 266.079C240.103 264.516 239.567 262.851 238.128 261.698C236.945 260.751 235.554 260.486 234.57 260.4L233.904 268.006ZM232.36 265.413C232.28 266.334 231.782 267.81 230.371 269.932L236.73 274.159C238.485 271.518 239.729 268.795 239.967 266.079L232.36 265.413ZM230.393 269.9C225.723 276.772 219.65 282.471 212.122 286.999L216.058 293.542C224.487 288.472 231.388 282.021 236.709 274.191L230.393 269.9ZM212.074 287.029C204.792 291.556 198.327 293.305 192.566 292.801L191.901 300.408C199.779 301.097 207.885 298.624 216.106 293.513L212.074 287.029ZM182.652 190.712C184.923 169.964 188.191 149.533 192.454 129.419L184.985 127.836C180.667 148.202 177.36 168.884 175.062 189.882L182.652 190.712ZM192.455 129.414C196.742 109.058 201.343 92.7454 206.231 80.4039L199.132 77.5922C194.024 90.4887 189.317 107.262 184.984 127.841L192.455 129.414ZM203.015 75.1948L202.674 75.1649L202.008 82.7715L202.349 82.8013L203.015 75.1948ZM201.049 75.3756C190.626 79.1231 180.547 89.1319 170.637 104.275L177.026 108.457C186.682 93.7019 195.609 85.4455 203.632 82.5609L201.049 75.3756ZM170.613 104.312C160.893 119.538 149.287 142.687 135.796 173.628L142.795 176.68C156.241 145.842 167.658 123.132 177.049 108.42L170.613 104.312ZM135.779 173.667L131.014 184.932L138.047 187.906L142.812 176.641L135.779 173.667ZM134.198 190.222L178.525 194.1L179.19 186.494L134.863 182.616L134.198 190.222Z" fill="#A4F8F3"/>
</g>
<path d="M325.381 167.244C325.98 165.471 328.469 165.418 329.142 167.164L332.352 175.489C332.592 176.11 333.125 176.571 333.775 176.719L338.842 177.872C340.828 178.324 340.946 181.109 339.005 181.728L333.615 183.444C333.057 183.622 332.605 184.035 332.378 184.574L329.119 192.323C328.415 193.996 326.025 193.942 325.398 192.238L322.602 184.642C322.389 184.063 321.92 183.615 321.332 183.427L315.995 181.728C314.054 181.109 314.172 178.324 316.158 177.872L321.171 176.731C321.85 176.577 322.4 176.08 322.623 175.421L325.381 167.244Z" fill="yellow"/>
<defs>
<filter id="filter0_d_9:70" x="25.9567" y="44.3941" width="218.031" height="264.127" filterUnits="userSpaceOnUse" color-interpolation-filters="sRGB">
<feFlood flood-opacity="0" result="BackgroundImageFix"/>
<feColorMatrix in="SourceAlpha" type="matrix" values="0 0 0 0 0 0 0 0 0 0 0 0 0 0 0 0 0 0 127 0" result="hardAlpha"/>
<feOffset dy="4"/>
<feGaussianBlur stdDeviation="2"/>
<feComposite in2="hardAlpha" operator="out"/>
<feColorMatrix type="matrix" values="0 0 0 0 0 0 0 0 0 0 0 0 0 0 0 0 0 0 0.25 0"/>
<feBlend mode="normal" in2="BackgroundImageFix" result="effect1_dropShadow_9:70"/>
<feBlend mode="normal" in="SourceGraphic" in2="effect1_dropShadow_9:70" result="shape"/>
</filter>
</defs>
</svg>