<svg width="341" height="305" viewBox="0 0 341 305" fill="none" xmlns="http://www.w3.org/2000/svg">
<circle cx="165" cy="155" r="144" fill="#28FBA5" stroke="#182025" stroke-width="12"/>
<path d="M63 51C63 47.6863 65.6863 45 69 45H103C106.314 45 109 47.6863 109 51C109 54.3137 106.314 57 103 57H69C65.6863 57 63 54.3137 63 51Z" fill="#182025"/>
<path d="M38 81C38 77.6863 40.6863 75 44 75H72C75.3137 75 78 77.6863 78 81C78 84.3137 75.3137 87 72 87H44C40.6863 87 38 84.3137 38 81Z" fill="#182025"/>
<path d="M185 141C185 137.686 187.686 135 191 135H247C250.314 135 253 137.686 253 141C253 144.314 250.314 147 247 147H191C187.686 147 185 144.314 185 141Z" fill="#373187"/>
<path d="M228 111C228 107.686 230.686 105 234 105H297C300.314 105 303 107.686 303 111C303 114.314 300.314 117 297 117H234C230.686 117 228 114.314 228 111Z" fill="#182025"/>
<path d="M47 141C47 137.686 49.6863 135 53 135H120C123.314 135 126 137.686 126 141C126 144.314 123.314 147 120 147H53C49.6863 147 47 144.314 47 141Z" fill="#9E1111"/>
<path d="M92 34C92 28.4771 96.4772 24 102 24H156C159.314 24 162 26.6863 162 30C162 33.3137 159.314 36 156 36H92V34Z" fill="#182025"/>
<path d="M197 30C197 26.6863 199.686 24 203 24H236C239.314 24 242 26.6863 242 30C242 33.3137 239.314 36 236 36H203C199.686 36 197 33.3137 197 30Z" fill="#182025"/>
<path d="M24 111C24 107.686 26.6863 105 30 105H116C119.314 105 122 107.686 122 111C122 114.314 119.314 117 116 117H30C26.6863 117 24 114.314 24 111Z" fill="#182025"/>
<path d="M126 111C126 107.686 128.686 105 132 105H196C199.314 105 202 107.686 202 111C202 114.314 199.314 117 196 117H132C128.686 117 126 114.314 126 111Z" fill="#373187"/>
<path d="M116 51C116 47.6863 118.686 45 122 45H131C134.314 45 137 47.6863 137 51C137 54.3137 134.314 57 131 57H122C118.686 57 116 54.3137 116 51Z" fill="#373187"/>
<path d="M169 30C169 26.6863 171.686 24 175 24H184C187.314 24 190 26.6863 190 30C190 33.3137 187.314 36 184 36H175C171.686 36 169 33.3137 169 30Z" fill="#FBD039"/>
<path d="M205 111C205 107.686 207.686 105 211 105H220C223.314 105 226 107.686 226 111C226 114.314 223.314 117 220 117H211C207.686 117 205 114.314 205 111Z" fill="#0A6930"/>
<path d="M149 167C149 163.686 151.686 161 155 161H164C167.314 161 170 163.686 170 167C170 170.314 167.314 173 164 173H155C151.686 173 149 170.314 149 167Z" fill="#FBD039"/>
<path d="M98 197C98 193.686 100.686 191 104 191H113C116.314 191 119 193.686 119 197C119 200.314 116.314 203 113 203H104C100.686 203 98 200.314 98 197Z" fill="#9E1111"/>
<path d="M171 262C171 258.686 173.686 256 177 256H186C189.314 256 192 258.686 192 262C192 265.314 189.314 268 186 268H177C173.686 268 171 265.314 171 262Z" fill="#373187"/>
<path d="M259 141C259 137.686 261.686 135 265 135H303C306.314 135 309 137.686 309 141C309 144.314 306.314 147 303 147H265C261.686 147 259 144.314 259 141Z" fill="#182025"/>
<path d="M16 167C16 163.686 18.6863 161 22 161H60C63.3137 161 66 163.686 66 167C66 170.314 63.3137 173 60 173H22C18.6863 173 16 170.314 16 167Z" fill="#182025"/>
<path d="M24 197C24 193.686 26.6863 191 30 191H86C89.3137 191 92 193.686 92 197C92 200.314 89.3137 203 86 203H30C26.6863 203 24 200.314 24 197Z" fill="#182025"/>
<path d="M73 167C73 163.686 75.6863 161 79 161H135C138.314 161 141 163.686 141 167C141 170.314 138.314 173 135 173H79C75.6863 173 73 170.314 73 167Z" fill="#373187"/>
<path d="M177 167C177 163.686 179.686 161 183 161H239C242.314 161 245 163.686 245 167C245 170.314 242.314 173 239 173H183C179.686 173 177 170.314 177 167Z" fill="#9E1111"/>
<path d="M126 197C126 193.686 128.686 191 132 191H188C191.314 191 194 193.686 194 197C194 200.314 191.314 203 188 203H132C128.686 203 126 200.314 126 197Z" fill="#373187"/>
<path d="M199 197C199 193.686 201.686 191 205 191H279C282.314 191 285 193.686 285 197C285 200.314 282.314 203 279 203H205C201.686 203 199 200.314 199 197Z" fill="#FBD039"/>
<path d="M41 232C41 228.686 43.6863 226 47 226H135C138.314 226 141 228.686 141 232C141 235.314 138.314 238 135 238H47C43.6863 238 41 235.314 41 232Z" fill="#182025"/>
<path d="M250 81C250 77.6863 252.686 75 256 75H283C286.314 75 289 77.6863 289 81C289 84.3137 286.314 87 283 87H256C252.686 87 250 84.3137 250 81Z" fill="#182025"/>
<path d="M131 141C131 137.686 133.686 135 137 135H173C176.314 135 179 137.686 179 141C179 144.314 176.314 147 173 147H137C133.686 147 131 144.314 131 141Z" fill="#0A6930"/>
<path d="M251 167C251 163.686 253.686 161 257 161H293C296.314 161 299 163.686 299 167C299 170.314 296.314 173 293 173H257C253.686 173 251 170.314 251 167Z" fill="#0A6930"/>
<path d="M149 232C149 228.686 151.686 226 155 226H209C212.314 226 215 228.686 215 232C215 235.314 212.314 238 209 238H155C151.686 238 149 235.314 149 232Z" fill="#0A6930"/>
<path d="M98 262C98 258.686 100.686 256 104 256H158C161.314 256 164 258.686 164 262C164 265.314 161.314 268 158 268H104C100.686 268 98 265.314 98 262Z" fill="#0A6930"/>
<path d="M198 262C198 258.686 200.686 256 204 256H258C261.314 256 264 258.686 264 262C264 265.314 261.314 268 258 268H204C200.686 268 198 265.314 198 262Z" fill="#182025"/>
<path d="M222 232C222 228.686 224.686 226 228 226H264C267.314 226 270 228.686 270 232C270 235.314 267.314 238 264 238H228C224.686 238 222 235.314 222 232Z" fill="#9E1111"/>
<path d="M141 51C141 47.6863 143.686 45 147 45H191C194.314 45 197 47.6863 197 51C197 54.3137 194.314 57 191 57H147C143.686 57 141 54.3137 141 51Z" fill="#9E1111"/>
<path d="M202 51C202 47.6863 204.686 45 208 45H258C261.314 45 264 47.6863 264 51C264 54.3137 261.314 57 258 57H208C204.686 57 202 54.3137 202 51Z" fill="#182025"/>
<path d="M166 81C166 77.6863 168.686 75 172 75H240C243.314 75 246 77.6863 246 81C246 84.3137 243.314 87 240 87H172C168.686 87 166 84.3137 166 81Z" fill="#373187"/>
<path d="M84 81C84 77.6863 86.6863 75 90 75H156C159.314 75 162 77.6863 162 81C162 84.3137 159.314 87 156 87H90C86.6863 87 84 84.3137 84 81Z" fill="#9E1111"/>
<circle cx="245" cy="30" r="28" fill="#93ECFF" fill-opacity="0.82" stroke="black" stroke-width="4"/>
<circle cx="24" cy="197" r="22" fill="#93ECFF" fill-opacity="0.82" stroke="black" stroke-width="4"/>
<circle cx="285" cy="232" r="22" fill="#93ECFF" fill-opacity="0.82" stroke="black" stroke-width="4"/>
<path d="M78.1036 3.07322C78.3781 2.13206 79.7023 2.10693 80.0123 3.03699L82.8289 11.4868C82.9357 11.807 83.1967 12.0518 83.5231 12.1377L89.4299 13.6921C90.3756 13.9409 90.4387 15.2594 89.5211 15.5975L83.4355 17.8396C83.1593 17.9413 82.942 18.1596 82.8414 18.4362L80.0029 26.242C79.6768 27.1388 78.3995 27.1128 78.1102 26.2035L75.6483 18.4661C75.5547 18.172 75.3306 17.9376 75.0411 17.8309L68.9789 15.5975C68.0613 15.2594 68.1244 13.9409 69.0701 13.6921L74.9529 12.144C75.2923 12.0546 75.5601 11.7939 75.6584 11.4569L78.1036 3.07322Z" fill="black"/>
<path d="M17.3813 57.2445C17.9798 55.4709 20.4689 55.4178 21.1424 57.1643L24.3524 65.4885C24.5921 66.11 25.1254 66.5714 25.7749 66.7191L30.8419 67.8717C32.8285 68.3236 32.9464 71.1094 31.0052 71.7276L25.6148 73.4442C25.057 73.6218 24.6051 74.0349 24.3782 74.5744L21.1185 82.3228C20.4146 83.9961 18.0252 83.9417 17.3981 82.2382L14.6021 74.6421C14.3888 74.0629 13.9202 73.6146 13.3321 73.4273L7.99484 71.7276C6.05356 71.1094 6.17152 68.3236 8.15812 67.8717L13.1711 66.7314C13.8501 66.5769 14.3999 66.0804 14.6225 65.4206L17.3813 57.2445Z" fill="black"/>
<path d="M166.874 61.2655H227.121C222.638 65.7481 214.838 69.155 203.721 71.486C192.604 73.8169 180.053 75.6997 166.067 77.1341C152.081 78.3893 142.936 79.4651 138.633 80.3617C119.447 84.8443 109.854 96.32 109.854 114.789C104.295 109.051 101.516 102.865 101.516 96.2303C101.516 72.9204 123.302 61.2655 166.874 61.2655ZM240.838 61.2655H260.203C251.955 69.155 243.527 90.7615 234.921 126.085C226.493 161.229 222.279 188.394 222.279 207.58C222.279 221.207 224.79 230.621 229.81 235.821C231.962 238.152 234.652 239.317 237.879 239.317C241.107 239.317 244.514 238.152 248.1 235.821L249.713 238.242C247.203 241.828 242.721 244.966 236.265 247.655C229.81 250.165 223.445 251.421 217.169 251.421C207.845 251.421 201.48 248.103 198.073 241.469C194.666 234.835 192.694 225.959 192.156 214.842C192.156 205.697 193.321 193.863 195.652 179.339H134.06C107.344 207.67 86.3647 230.89 71.1236 249H44.2275C61.0824 233.58 87.2612 208.297 122.764 173.153C168.487 127.609 198.521 96.051 212.866 78.4789C216.452 74.1756 219.142 71.217 220.935 69.6032C222.728 67.8102 225.417 66.0171 229.004 64.224C232.769 62.2516 236.714 61.2655 240.838 61.2655ZM213.135 99.1889C192.694 118.375 170.28 140.609 145.895 165.891H197.535C200.763 148.14 205.963 125.906 213.135 99.1889Z" fill="#FF75E9"/>
<path d="M227.121 61.2655L229.242 63.3868L234.363 58.2655H227.121V61.2655ZM203.721 71.486L203.106 68.5498L203.106 68.5498L203.721 71.486ZM166.067 77.1341L166.335 80.1221L166.354 80.1204L166.373 80.1185L166.067 77.1341ZM138.633 80.3617L138.021 77.4247L137.985 77.4321L137.95 77.4403L138.633 80.3617ZM109.854 114.789L107.699 116.876L112.854 122.197V114.789H109.854ZM260.203 61.2655L262.277 63.4334L267.679 58.2655H260.203V61.2655ZM234.921 126.085L232.006 125.375L232.003 125.385L234.921 126.085ZM229.81 235.821L232.015 233.786L231.992 233.761L231.969 233.737L229.81 235.821ZM248.1 235.821L250.596 234.157L248.951 231.69L246.465 233.306L248.1 235.821ZM249.713 238.242L252.171 239.962L253.347 238.283L252.21 236.577L249.713 238.242ZM236.265 247.655L237.353 250.451L237.386 250.438L237.419 250.424L236.265 247.655ZM198.073 241.469L200.742 240.099L200.742 240.099L198.073 241.469ZM192.156 214.842H189.156V214.915L189.159 214.987L192.156 214.842ZM195.652 179.339L198.614 179.815L199.172 176.339H195.652V179.339ZM134.06 179.339V176.339H132.766L131.878 177.281L134.06 179.339ZM71.1236 249V252H72.5199L73.4189 250.932L71.1236 249ZM44.2275 249L42.2025 246.787L36.5041 252H44.2275V249ZM122.764 173.153L124.875 175.285L124.881 175.279L122.764 173.153ZM212.866 78.4789L210.561 76.5584L210.551 76.57L210.542 76.5818L212.866 78.4789ZM220.935 69.6032L222.942 71.8331L223 71.7803L223.056 71.7245L220.935 69.6032ZM229.004 64.224L230.345 66.9073L230.37 66.8946L230.396 66.8815L229.004 64.224ZM213.135 99.1889L216.032 99.9667L218.764 89.7909L211.082 97.0015L213.135 99.1889ZM145.895 165.891L143.735 163.808L138.833 168.891H145.895V165.891ZM197.535 165.891V168.891H200.039L200.487 166.428L197.535 165.891ZM166.874 64.2655H227.121V58.2655H166.874V64.2655ZM224.999 59.1441C221.142 63.0016 214.045 66.2561 203.106 68.5498L204.337 74.4221C215.632 72.0538 224.134 68.4947 229.242 63.3868L224.999 59.1441ZM203.106 68.5498C192.111 70.855 179.666 72.7236 165.761 74.1498L166.373 80.1185C180.439 78.6757 193.097 76.7789 204.337 74.4221L203.106 68.5498ZM165.799 74.1461C151.85 75.3979 142.526 76.4862 138.021 77.4247L139.245 83.2986C143.347 82.444 152.312 81.3806 166.335 80.1221L165.799 74.1461ZM137.95 77.4403C127.924 79.7828 120.076 84.0315 114.747 90.4063C109.401 96.8017 106.854 105.022 106.854 114.789H112.854C112.854 106.087 115.104 99.3348 119.35 94.2545C123.614 89.1536 130.155 85.4231 139.315 83.283L137.95 77.4403ZM112.009 112.701C106.875 107.401 104.516 101.931 104.516 96.2303H98.5162C98.5162 103.798 101.716 110.7 107.699 116.876L112.009 112.701ZM104.516 96.2303C104.516 90.888 105.758 86.3538 108.147 82.5197C110.542 78.6762 114.195 75.3673 119.271 72.6519C129.512 67.1732 145.257 64.2655 166.874 64.2655V58.2655C144.918 58.2655 127.985 61.1852 116.44 67.3614C110.623 70.4735 106.106 74.4489 103.055 79.3467C99.9973 84.2538 98.5162 89.9178 98.5162 96.2303H104.516ZM240.838 64.2655H260.203V58.2655H240.838V64.2655ZM258.129 59.0975C253.504 63.5213 249.143 71.422 244.901 82.2973C240.62 93.2733 236.325 107.647 232.006 125.375L237.835 126.795C242.123 109.199 246.345 95.1081 250.491 84.4776C254.677 73.7464 258.653 66.8991 262.277 63.4334L258.129 59.0975ZM232.003 125.385C223.56 160.595 219.279 188.035 219.279 207.58H225.279C225.279 188.753 229.426 161.863 237.838 126.785L232.003 125.385ZM219.279 207.58C219.279 221.373 221.779 231.822 227.652 237.905L231.969 233.737C227.8 229.42 225.279 221.042 225.279 207.58H219.279ZM227.606 237.856C230.337 240.814 233.831 242.317 237.879 242.317V236.317C235.472 236.317 233.587 235.49 232.015 233.786L227.606 237.856ZM237.879 242.317C241.848 242.317 245.817 240.883 249.735 238.336L246.465 233.306C243.21 235.421 240.366 236.317 237.879 236.317V242.317ZM245.604 237.485L247.217 239.906L252.21 236.577L250.596 234.157L245.604 237.485ZM247.256 236.521C245.213 239.44 241.327 242.296 235.112 244.886L237.419 250.424C244.114 247.635 249.194 244.216 252.171 239.962L247.256 236.521ZM235.178 244.859C229.034 247.249 223.036 248.421 217.169 248.421V254.421C223.854 254.421 230.587 253.082 237.353 250.451L235.178 244.859ZM217.169 248.421C208.635 248.421 203.498 245.466 200.742 240.099L195.404 242.84C199.462 250.741 207.056 254.421 217.169 254.421V248.421ZM200.742 240.099C197.602 233.985 195.679 225.579 195.152 214.697L189.159 214.987C189.709 226.339 191.73 235.685 195.404 242.84L200.742 240.099ZM195.156 214.842C195.156 205.922 196.296 194.264 198.614 179.815L192.69 178.864C190.347 193.463 189.156 205.472 189.156 214.842H195.156ZM195.652 176.339H134.06V182.339H195.652V176.339ZM131.878 177.281C105.144 205.63 84.1214 228.897 68.8283 247.068L73.4189 250.932C88.608 232.883 109.544 209.709 136.243 181.397L131.878 177.281ZM71.1236 246H44.2275V252H71.1236V246ZM46.2526 251.213C63.1541 235.75 89.3685 210.433 124.875 175.285L120.654 171.021C85.154 206.162 59.0107 231.409 42.2025 246.787L46.2526 251.213ZM124.881 175.279C170.591 129.748 200.733 98.0859 215.19 80.3761L210.542 76.5818C196.31 94.0161 166.384 125.47 120.647 171.028L124.881 175.279ZM215.171 80.3995C218.753 76.1008 221.323 73.2897 222.942 71.8331L218.928 67.3733C216.96 69.1443 214.151 72.2503 210.561 76.5584L215.171 80.3995ZM223.056 71.7245C224.528 70.2523 226.9 68.6298 230.345 66.9073L227.662 61.5407C223.935 63.4044 220.927 65.368 218.813 67.4819L223.056 71.7245ZM230.396 66.8815C233.745 65.1269 237.214 64.2655 240.838 64.2655V58.2655C236.214 58.2655 231.793 59.3763 227.611 61.5665L230.396 66.8815ZM211.082 97.0015C190.597 116.229 168.147 138.499 143.735 163.808L148.054 167.974C172.413 142.719 194.791 120.521 215.188 101.376L211.082 97.0015ZM145.895 168.891H197.535V162.891H145.895V168.891ZM200.487 166.428C203.694 148.788 208.871 126.641 216.032 99.9667L210.237 98.4111C203.054 125.17 197.831 147.491 194.584 165.354L200.487 166.428Z" fill="#F6F8A4"/>
<path d="M325.381 167.244C325.98 165.471 328.469 165.418 329.142 167.164L332.352 175.489C332.592 176.11 333.125 176.571 333.775 176.719L338.842 177.872C340.828 178.324 340.946 181.109 339.005 181.728L333.615 183.444C333.057 183.622 332.605 184.035 332.378 184.574L329.119 192.323C328.415 193.996 326.025 193.942 325.398 192.238L322.602 184.642C322.389 184.063 321.92 183.615 321.332 183.427L315.995 181.728C314.054 181.109 314.172 178.324 316.158 177.872L321.171 176.731C321.85 176.577 322.4 176.08 322.623 175.421L325.381 167.244Z" fill="black"/>
</svg>
